 http://desibbrg.org/images/66952052392581364616.gif 
http://desibbrg.org/images/89211871563444149729.jpg 
http://desibbrg.org/images/95170001258917690383.png 
http://desibbrg.org/images/25064328407013009305.png 
http://desibbrg.org/images/39577997837026842473.png 
http://desibbrg.org/images/37823835279356592027.png

Info - 
Director: Abhishek Kapoor
Producer: Siddharth Roy Kapur , Ronnie Screwvala
Music Director: Amit Trivedi
Lyricst: Swanand Kirkire
Cast
Sushant Singh Rajput.... Ishaan
Amit Sadh.... Omi
Raj Kumar Yadav.... Govind
Amrita Puri.... Vidya
Digvijay Deshmukh.... Ali
Asif Basra.... Ali's Father
Manav Kaul.... Bittoo Mama
Ajay Jadeja.... Cameo
Gaurav Kapoor.... Cameo
Muni Jha.... Ishaan's Father
Amitabh Srivastava.... Omi's Father
Ashish Kakkad.... Vishwas
Gargi Patel.... Mrs. Mehra
Mori Patel.... Govind's Mother
Beena Shah.... Omi's Mother
Alok Gadgekar.... Subodh Mehta
Bharat Thakkar.... Hasan Sheikh
Bhim Vakani.... Parekhji

Media Info - 
General
Complete name : /Kai Po Che (2013) DVDScr - Xvid - MP3 - Team IcTv Exclusive.avi
Format : AVI
Format/Info : Audio Video Interleave
File size : 695 MiB
Duration : 2h 2mn
Overall bit rate mode : Variable
Overall bit rate : 797 Kbps

Video
ID : 0
Format : MPEG-4 Visual
Format profile : Advanced Simple@L5
Format settings, BVOP : 2
Format settings, QPel : No
Format settings, GMC : No warppoints
Format settings, Matrix : Default (H.263)
Codec ID : XVID
Codec ID/Hint : XviD
Duration : 2h 2mn
Bit rate : 698 Kbps
Width : 608 pixels
Height : 288 pixels
Display aspect ratio : 2.111
Frame rate : 29.970 fps
Color space : YUV
Chroma subsampling : 4:2:0
Bit depth : 8 bits
Scan type : Progressive
Compression mode : Lossy
Bits/(Pixel*Frame) : 0.133
Stream size : 609 MiB (88%)
Writing library : XviD 1.2.1 (UTC 2008-12-04)

Audio
ID : 1
Format : MPEG Audio
Format version : Version 1
Format profile : Layer 3
Mode : Joint stereo
Mode extension : MS Stereo
Codec ID : 55
Codec ID/Hint : MP3
Duration : 2h 2mn
Bit rate mode : Variable
Bit rate : 87.4 Kbps
Nominal bit rate : 96.0 Kbps
Channel(s) : 2 channels
Sampling rate : 32.0 KHz
Compression mode : Lossy
Stream size : 76.2 MiB (11%)
Alignment : Aligned on interleaves
Interleave, duration : 36 ms (1.08 video frame)
Interleave, preload duration : 217 ms
Title : VTS_01_1 T80 2_0ch 192Kbps DELAY 0ms
Writing library : LAME3.99r
Encoding settings : -m j -V 4 -q 2 -lowpass 15.1 --abr 96

Ripper : Master Mind

Seeding 24x7... Extreme Seeding...


Enjoy!
